<?xml version="1.0" standalone="no"?>
<!DOCTYPE svg PUBLIC "-//W3C//DTD SVG 20010904//EN"
 "http://www.w3.org/TR/2001/REC-SVG-20010904/DTD/svg10.dtd">
<svg version="1.0" xmlns="http://www.w3.org/2000/svg"
 width="1440.000000pt" height="1440.000000pt" viewBox="0 0 1440.000000 1440.000000"
 preserveAspectRatio="xMidYMid meet">
<metadata>
Created by potrace 1.14, written by Peter Selinger 2001-2017
</metadata>
<g transform="translate(0.000000,1440.000000) scale(0.100000,-0.100000)"
fill="#000000" stroke="none">
<path d="M9905 10149 c-890 -37 -1678 -430 -2172 -1084 -315 -418 -509 -920
-575 -1490 -17 -146 -17 -608 0 -750 110 -914 536 -1638 1239 -2102 145 -96
400 -224 573 -288 214 -78 451 -133 715 -165 149 -18 498 -24 656 -11 442 37
773 128 1142 315 569 288 988 735 1252 1336 178 404 258 802 257 1290 0 538
-90 948 -306 1395 -141 292 -301 519 -521 741 -480 483 -1172 781 -1875 809
-74 3 -155 7 -180 8 -25 2 -117 0 -205 -4z m559 -938 c239 -44 487 -144 675
-274 143 -99 337 -302 428 -448 168 -269 274 -594 314 -959 15 -138 15 -505 0
-650 -78 -751 -426 -1295 -993 -1551 -395 -179 -892 -213 -1368 -94 -515 129
-931 509 -1125 1027 -97 261 -136 458 -155 777 -34 555 88 1076 345 1471 88
137 297 348 434 439 221 146 480 240 777 280 38 5 177 8 309 7 194 -3 263 -8
359 -25z"/>
<path d="M1400 7200 l0 -2890 540 0 540 0 0 1265 0 1265 1360 0 1360 0 0
-1265 0 -1265 540 0 540 0 0 2890 0 2890 -540 0 -540 0 0 -1245 0 -1245 -1360
0 -1360 0 0 1245 0 1245 -540 0 -540 0 0 -2890z"/>
</g>
</svg>
